<svg width="20" height="20" viewBox="0 0 20 20" fill="none" xmlns="http://www.w3.org/2000/svg">
<path d="M13.4917 1.66669H6.50835C3.47502 1.66669 1.66669 3.47502 1.66669 6.50835V13.4834C1.66669 16.525 3.47502 18.3334 6.50835 18.3334H13.4834C16.5167 18.3334 18.325 16.525 18.325 13.4917V6.50835C18.3334 3.47502 16.525 1.66669 13.4917 1.66669ZM13.3334 10.625H10.625V13.3334C10.625 13.675 10.3417 13.9584 10 13.9584C9.65835 13.9584 9.37502 13.675 9.37502 13.3334V10.625H6.66669C6.32502 10.625 6.04169 10.3417 6.04169 10C6.04169 9.65835 6.32502 9.37502 6.66669 9.37502H9.37502V6.66669C9.37502 6.32502 9.65835 6.04169 10 6.04169C10.3417 6.04169 10.625 6.32502 10.625 6.66669V9.37502H13.3334C13.675 9.37502 13.9584 9.65835 13.9584 10C13.9584 10.3417 13.675 10.625 13.3334 10.625Z" fill="#151515"/>
</svg>
