<svg width="20" height="20" viewBox="0 0 20 20" fill="none" xmlns="http://www.w3.org/2000/svg">
<path d="M10.7417 4.89999H4.25834C2.83334 4.89999 1.66669 6.06665 1.66669 7.49165V16.9583C1.66669 18.1667 2.53335 18.6833 3.59168 18.0917L6.86668 16.2666C7.21668 16.075 7.78335 16.075 8.12502 16.2666L11.4 18.0917C12.4583 18.6833 13.325 18.1667 13.325 16.9583V7.49165C13.3333 6.06665 12.1667 4.89999 10.7417 4.89999Z" stroke="#151515" stroke-width="1.5" stroke-linecap="round" stroke-linejoin="round"/>
<path d="M13.3334 7.49165V16.9583C13.3334 18.1667 12.4667 18.675 11.4084 18.0917L8.13336 16.2666C7.78336 16.075 7.21668 16.075 6.86668 16.2666L3.59168 18.0917C2.53335 18.675 1.66669 18.1667 1.66669 16.9583V7.49165C1.66669 6.06665 2.83334 4.89999 4.25834 4.89999H10.7417C12.1667 4.89999 13.3334 6.06665 13.3334 7.49165Z" stroke="#151515" stroke-width="1.5" stroke-linecap="round" stroke-linejoin="round"/>
<path d="M18.3334 4.25831V13.725C18.3334 14.9333 17.4667 15.4416 16.4084 14.8583L13.3334 13.1416V7.49165C13.3334 6.06665 12.1667 4.89999 10.7417 4.89999H6.66669V4.25831C6.66669 2.83331 7.83334 1.66666 9.25834 1.66666H15.7417C17.1667 1.66666 18.3334 2.83331 18.3334 4.25831Z" stroke="#151515" stroke-width="1.5" stroke-linecap="round" stroke-linejoin="round"/>
</svg>
