<svg width="20" height="20" viewBox="0 0 20 20" fill="none" xmlns="http://www.w3.org/2000/svg">
<path d="M10 18.3334C14.5834 18.3334 18.3334 14.5834 18.3334 10C18.3334 5.41669 14.5834 1.66669 10 1.66669C5.41669 1.66669 1.66669 5.41669 1.66669 10C1.66669 14.5834 5.41669 18.3334 10 18.3334Z" stroke="#151515" stroke-width="1.5" stroke-linecap="round" stroke-linejoin="round"/>
<path d="M9.93 14.5C10.1925 14.5 10.4145 14.4092 10.596 14.2277C10.7775 14.0462 10.868 13.8245 10.8675 13.5625C10.867 13.3005 10.7765 13.0785 10.596 12.8965C10.4155 12.7145 10.1935 12.624 9.93 12.625C9.6665 12.626 9.44475 12.7167 9.26475 12.8972C9.08475 13.0777 8.994 13.2995 8.9925 13.5625C8.991 13.8255 9.08175 14.0475 9.26475 14.2285C9.44775 14.4095 9.6695 14.5 9.93 14.5ZM9.255 11.6125H10.6425C10.6425 11.2 10.6895 10.875 10.7835 10.6375C10.8775 10.4 11.143 10.075 11.58 9.6625C11.905 9.3375 12.1613 9.028 12.3488 8.734C12.5363 8.44 12.63 8.087 12.63 7.675C12.63 6.975 12.3738 6.4375 11.8613 6.0625C11.3488 5.6875 10.7425 5.5 10.0425 5.5C9.33001 5.5 8.752 5.6875 8.3085 6.0625C7.865 6.4375 7.5555 6.8875 7.38 7.4125L8.6175 7.9C8.68 7.675 8.82075 7.43125 9.03975 7.16875C9.25875 6.90625 9.593 6.775 10.0425 6.775C10.4425 6.775 10.7425 6.8845 10.9425 7.1035C11.1425 7.3225 11.2425 7.563 11.2425 7.825C11.2425 8.075 11.1675 8.3095 11.0175 8.5285C10.8675 8.7475 10.68 8.9505 10.455 9.1375C9.905 9.625 9.5675 9.99375 9.4425 10.2437C9.3175 10.4937 9.255 10.95 9.255 11.6125Z" fill="#151515"/>
</svg>
