<svg width="21" height="20" viewBox="0 0 21 20" fill="none" xmlns="http://www.w3.org/2000/svg">
<path d="M7.99999 18.3332H13C17.1667 18.3332 18.8333 16.6665 18.8333 12.4998V7.49984C18.8333 3.33317 17.1667 1.6665 13 1.6665H7.99999C3.83332 1.6665 2.16666 3.33317 2.16666 7.49984V12.4998C2.16666 16.6665 3.83332 18.3332 7.99999 18.3332Z" stroke="#151515" stroke-width="1.5" stroke-linecap="round" stroke-linejoin="round"/>
<path d="M10.5 12.9168C12.1108 12.9168 13.4167 11.611 13.4167 10.0002C13.4167 8.38933 12.1108 7.0835 10.5 7.0835C8.88918 7.0835 7.58334 8.38933 7.58334 10.0002C7.58334 11.611 8.88918 12.9168 10.5 12.9168Z" stroke="#151515" stroke-width="1.5" stroke-linecap="round" stroke-linejoin="round"/>
<path d="M15.1968 5.83317H15.2064" stroke="#151515" stroke-width="2" stroke-linecap="round" stroke-linejoin="round"/>
</svg>
