<svg width="20" height="20" viewBox="0 0 20 20" fill="none" xmlns="http://www.w3.org/2000/svg">
<path fill-rule="evenodd" clip-rule="evenodd" d="M6.94454 2.625C5.93156 2.625 4.96007 3.0274 4.24378 3.74369C3.5275 4.45997 3.12509 5.43146 3.12509 6.44444V13.5556C3.12509 14.5685 3.5275 15.54 4.24378 16.2563C4.96007 16.9726 5.93156 17.375 6.94454 17.375H14.0556C15.0686 17.375 16.0401 16.9726 16.7564 16.2563C17.4727 15.54 17.8751 14.5685 17.8751 13.5556V6.44444C17.8751 5.43146 17.4727 4.45997 16.7564 3.74369C16.0401 3.0274 15.0686 2.625 14.0556 2.625H6.94454ZM3.3599 2.85981C4.3106 1.9091 5.60004 1.375 6.94454 1.375H14.0556C15.4001 1.375 16.6896 1.9091 17.6403 2.85981C18.591 3.81051 19.1251 5.09994 19.1251 6.44444V13.5556C19.1251 14.9001 18.591 16.1895 17.6403 17.1402C16.6896 18.0909 15.4001 18.625 14.0556 18.625H6.94454C5.60004 18.625 4.3106 18.0909 3.3599 17.1402C2.40919 16.1895 1.87509 14.9001 1.87509 13.5556V6.44444C1.87509 5.09994 2.40919 3.81051 3.3599 2.85981ZM6.05565 7.59722C6.40083 7.59722 6.68065 7.87704 6.68065 8.22222V14.4444C6.68065 14.7896 6.40083 15.0694 6.05565 15.0694C5.71047 15.0694 5.43065 14.7896 5.43065 14.4444V8.22222C5.43065 7.87704 5.71047 7.59722 6.05565 7.59722Z" fill="black"/>
<path fill-rule="evenodd" clip-rule="evenodd" d="M6.48508 5.09221C6.74049 5.3244 6.75932 5.71968 6.52712 5.97509L6.51823 5.98487C6.28604 6.24028 5.89076 6.2591 5.63535 6.02691C5.37994 5.79471 5.36112 5.39943 5.59331 5.14402L5.6022 5.13424C5.83439 4.87883 6.22967 4.86001 6.48508 5.09221ZM9.61133 7.59722C9.95651 7.59722 10.2363 7.87704 10.2363 8.22222V9.0531C10.8345 8.62999 11.5666 8.43056 12.278 8.43056C13.0674 8.43056 13.8823 8.67613 14.5114 9.20042C15.1549 9.73665 15.5697 10.538 15.5697 11.5556V14.4444C15.5697 14.7896 15.2898 15.0694 14.9447 15.0694C14.5995 15.0694 14.3197 14.7896 14.3197 14.4444V11.5556C14.3197 10.9064 14.0677 10.4578 13.7112 10.1607C13.3404 9.85165 12.822 9.68056 12.278 9.68056C11.734 9.68056 11.2156 9.85165 10.8448 10.1607C10.4883 10.4578 10.2363 10.9064 10.2363 11.5556V14.4444C10.2363 14.7896 9.95651 15.0694 9.61133 15.0694C9.26615 15.0694 8.98633 14.7896 8.98633 14.4444V8.22222C8.98633 7.87704 9.26615 7.59722 9.61133 7.59722Z" fill="black"/>
</svg>
