<svg width="32" height="32" viewBox="0 0 32 32" fill="none" xmlns="http://www.w3.org/2000/svg">
<path d="M16 31.2C16 31.6418 15.6416 32.0021 15.2003 31.98C12.3165 31.8357 9.51993 30.9132 7.11088 29.3035C4.47969 27.5454 2.42893 25.0466 1.21793 22.1229C0.00692507 19.1993 -0.309928 15.9822 0.307436 12.8786C0.9248 9.77486 2.44865 6.92393 4.68629 4.68629C6.92393 2.44865 9.77486 0.924798 12.8786 0.307435C15.9823 -0.309928 19.1993 0.00692577 22.1229 1.21793C25.0466 2.42893 27.5454 4.47969 29.3035 7.11088C30.9132 9.51993 31.8357 12.3165 31.98 15.2003C32.0021 15.6416 31.6418 16 31.2 16C30.7582 16 30.4023 15.6415 30.3778 15.2004C30.235 12.6332 29.407 10.1457 27.9732 7.99979C26.3909 5.63172 24.1419 3.78604 21.5106 2.69614C18.8794 1.60623 15.984 1.32107 13.1907 1.87669C10.3974 2.43232 7.83154 3.80379 5.81766 5.81766C3.80379 7.83154 2.43232 10.3974 1.87669 13.1907C1.32107 15.984 1.60623 18.8794 2.69613 21.5106C3.78604 24.1419 5.63172 26.3909 7.99979 27.9732C10.1457 29.407 12.6332 30.235 15.2004 30.3778C15.6415 30.4023 16 30.7582 16 31.2Z" fill="url(#paint0_linear_153_1553)"/>
<defs>
<linearGradient id="paint0_linear_153_1553" x1="30.6667" y1="16" x2="0.666668" y2="16" gradientUnits="userSpaceOnUse">
<stop stop-color="#151515" stop-opacity="0"/>
<stop offset="1" stop-color="#151515"/>
</linearGradient>
</defs>
</svg>
