<svg width="20" height="20" viewBox="0 0 20 20" fill="none" xmlns="http://www.w3.org/2000/svg">
<path d="M2.29151 9.99999C2.29022 11.012 2.48866 12.0144 2.87548 12.9496C3.26229 13.8848 3.82987 14.7345 4.54568 15.45C5.26183 16.1663 6.11215 16.7345 7.04801 17.122C7.98387 17.5095 8.98693 17.7087 9.99984 17.7083C11.09 17.7107 12.1682 17.4806 13.1623 17.0333L16.3848 17.51C16.5448 17.5361 16.7088 17.5228 16.8625 17.4712C17.0162 17.4195 17.1549 17.3311 17.2667 17.2137C17.3784 17.0963 17.4598 16.9533 17.5038 16.7973C17.5478 16.6413 17.553 16.4768 17.519 16.3183L17.0715 13.0492C17.4972 12.0893 17.7142 11.05 17.7082 9.99999C17.7095 8.98793 17.511 7.98557 17.1242 7.05035C16.7374 6.11513 16.1698 5.26545 15.454 4.54999C14.7379 3.83367 13.8875 3.26552 12.9517 2.87802C12.0158 2.49052 11.0128 2.29127 9.99984 2.29166C7.95433 2.29179 5.99256 3.10408 4.54568 4.54999C3.83024 5.26572 3.2629 6.11546 2.87611 7.05062C2.48932 7.98577 2.29067 8.988 2.29151 9.99999Z" stroke="#151515" stroke-width="1.5" stroke-linecap="round" stroke-linejoin="round"/>
</svg>
