<svg width="20" height="20" viewBox="0 0 20 20" fill="none" xmlns="http://www.w3.org/2000/svg">
<path d="M2.29152 9.99999C2.29023 11.012 2.48868 12.0144 2.87549 12.9496C3.26231 13.8848 3.82988 14.7345 4.54569 15.45C5.26185 16.1663 6.11216 16.7345 7.04802 17.122C7.98389 17.5095 8.98694 17.7087 9.99986 17.7083C11.09 17.7107 12.1682 17.4806 13.1624 17.0333L16.3849 17.51C16.5449 17.5361 16.7088 17.5228 16.8625 17.4712C17.0162 17.4195 17.1549 17.3311 17.2667 17.2137C17.3785 17.0963 17.4599 16.9533 17.5038 16.7973C17.5478 16.6413 17.553 16.4768 17.519 16.3183L17.0715 13.0492C17.4972 12.0893 17.7142 11.05 17.7082 9.99999C17.7095 8.98793 17.511 7.98557 17.1242 7.05035C16.7374 6.11513 16.1698 5.26545 15.454 4.54999C14.7379 3.83367 13.8876 3.26552 12.9517 2.87802C12.0158 2.49052 11.0128 2.29127 9.99986 2.29166C7.95434 2.29179 5.99257 3.10408 4.54569 4.54999C3.83025 5.26572 3.26292 6.11546 2.87613 7.05062C2.48934 7.98577 2.29068 8.988 2.29152 9.99999Z" stroke="#151515" stroke-width="1.5" stroke-linecap="round" stroke-linejoin="round"/>
<path d="M3.99982 9.99999C3.99881 10.7878 4.15328 11.568 4.45436 12.2959C4.75545 13.0239 5.19724 13.6853 5.7544 14.2422C6.31184 14.7997 6.9737 15.2419 7.70215 15.5436C8.4306 15.8452 9.21135 16.0003 9.99977 16C10.8483 16.0019 11.6875 15.8227 12.4614 15.4746L14.9697 15.8456C15.0942 15.8659 15.2218 15.8556 15.3415 15.8154C15.4611 15.7752 15.5691 15.7064 15.6561 15.615C15.7431 15.5236 15.8064 15.4123 15.8407 15.2909C15.8749 15.1694 15.8789 15.0414 15.8525 14.918L15.5042 12.3734C15.8355 11.6263 16.0044 10.8173 15.9997 9.99999C16.0007 9.21223 15.8463 8.43201 15.5452 7.70406C15.2441 6.97611 14.8023 6.31473 14.2451 5.75784C13.6877 5.20027 13.0258 4.75804 12.2974 4.45641C11.5689 4.15479 10.7882 3.9997 9.99977 4C8.4076 4.00011 6.88061 4.63237 5.7544 5.75784C5.19752 6.31494 4.75593 6.97636 4.45486 7.70427C4.15379 8.43217 3.99917 9.21228 3.99982 9.99999Z" fill="#151515"/>
</svg>
