<svg width="20" height="20" viewBox="0 0 20 20" fill="none" xmlns="http://www.w3.org/2000/svg">
<path d="M13.3334 5.25002V5.00002C13.3334 3.15835 11.8417 1.66669 10 1.66669C8.15835 1.66669 6.66669 3.15835 6.66669 5.00002V9.16669" stroke="#151515" stroke-width="1.5" stroke-linecap="round" stroke-linejoin="round"/>
<path d="M7.53333 11.825C8.14166 12.5 9.02499 12.9167 9.99999 12.9167C11.8417 12.9167 13.3333 11.425 13.3333 9.58335V9.16669" stroke="#151515" stroke-width="1.5" stroke-linecap="round" stroke-linejoin="round"/>
<path d="M5.65002 14.125C6.79169 15.1834 8.31669 15.8334 10 15.8334C13.5167 15.8334 16.375 12.975 16.375 9.45835V8.04169" stroke="#151515" stroke-width="1.5" stroke-linecap="round" stroke-linejoin="round"/>
<path d="M3.625 8.04169V9.45835C3.625 10.3417 3.8 11.175 4.125 11.9417" stroke="#151515" stroke-width="1.5" stroke-linecap="round" stroke-linejoin="round"/>
<path d="M16.725 2.36664L3.27502 15.825" stroke="#151515" stroke-width="1.5" stroke-linecap="round" stroke-linejoin="round"/>
<path d="M9.16669 2.5V5" stroke="#151515" stroke-width="1.5" stroke-linecap="round" stroke-linejoin="round"/>
<path d="M10 15.8333V18.3333" stroke="#151515" stroke-width="1.5" stroke-linecap="round" stroke-linejoin="round"/>
</svg>
