<svg width="20" height="20" viewBox="0 0 20 20" fill="none" xmlns="http://www.w3.org/2000/svg">
<path d="M10 12.9167C11.8417 12.9167 13.3334 11.425 13.3334 9.58335V5.00002C13.3334 3.15835 11.8417 1.66669 10 1.66669C8.15835 1.66669 6.66669 3.15835 6.66669 5.00002V9.58335C6.66669 11.425 8.15835 12.9167 10 12.9167Z" stroke="#151515" stroke-width="1.5" stroke-linecap="round" stroke-linejoin="round"/>
<path d="M3.625 8.04169V9.45835C3.625 12.975 6.48333 15.8334 10 15.8334C13.5167 15.8334 16.375 12.975 16.375 9.45835V8.04169" stroke="#151515" stroke-width="1.5" stroke-linecap="round" stroke-linejoin="round"/>
<path d="M8.84167 5.35835C9.59167 5.08335 10.4083 5.08335 11.1583 5.35835" stroke="#151515" stroke-width="1.5" stroke-linecap="round" stroke-linejoin="round"/>
<path d="M9.33331 7.12498C9.77498 7.00831 10.2333 7.00831 10.675 7.12498" stroke="#151515" stroke-width="1.5" stroke-linecap="round" stroke-linejoin="round"/>
<path d="M10 15.8333V18.3333" stroke="#151515" stroke-width="1.5" stroke-linecap="round" stroke-linejoin="round"/>
</svg>
