<svg width="20" height="20" viewBox="0 0 20 20" fill="none" xmlns="http://www.w3.org/2000/svg">
<path d="M10 5.36664V8.14164" stroke="#151515" stroke-width="1.5" stroke-miterlimit="10" stroke-linecap="round"/>
<path d="M10.0166 1.66669C6.94998 1.66669 4.46664 4.15002 4.46664 7.21669V8.96669C4.46664 9.53335 4.23331 10.3834 3.94164 10.8667L2.88331 12.6334C2.23331 13.725 2.68331 14.9417 3.88331 15.3417C7.86664 16.6667 12.175 16.6667 16.1583 15.3417C17.2833 14.9667 17.7666 13.65 17.1583 12.6334L16.1 10.8667C15.8083 10.3834 15.575 9.52502 15.575 8.96669V7.21669C15.5666 4.16669 13.0666 1.66669 10.0166 1.66669Z" stroke="#151515" stroke-width="1.5" stroke-miterlimit="10" stroke-linecap="round"/>
<path d="M12.775 15.6833C12.775 17.2083 11.525 18.4583 9.99998 18.4583C9.24164 18.4583 8.54164 18.1417 8.04164 17.6417C7.54164 17.1417 7.22498 16.4417 7.22498 15.6833" stroke="#151515" stroke-width="1.5" stroke-miterlimit="10"/>
<path fill-rule="evenodd" clip-rule="evenodd" d="M15.0835 1.2968C15.2583 1.01567 15.6501 0.916852 15.9586 1.07608C18.315 2.2921 19.4843 4.79636 18.8115 7.18645L18.7063 7.56018C18.6183 7.87314 18.2684 8.06178 17.9249 7.98152C17.5814 7.90126 17.3744 7.5825 17.4625 7.26954L17.5677 6.89582C18.0963 5.01762 17.1775 3.04971 15.3257 2.09412C15.0172 1.9349 14.9087 1.57792 15.0835 1.2968Z" fill="#151515"/>
<path fill-rule="evenodd" clip-rule="evenodd" d="M4.9165 1.2968C5.09126 1.57792 4.9828 1.9349 4.67425 2.09412C2.82252 3.04971 1.9037 5.01762 2.43235 6.89582L2.53754 7.26954C2.62563 7.5825 2.41858 7.90126 2.07509 7.98152C1.73161 8.06178 1.38174 7.87314 1.29366 7.56018L1.18847 7.18645C0.515739 4.79636 1.68498 2.2921 4.04139 1.07608C4.34994 0.916852 4.74174 1.01567 4.9165 1.2968Z" fill="#151515"/>
</svg>
