<svg width="20" height="20" viewBox="0 0 20 20" fill="none" xmlns="http://www.w3.org/2000/svg">
<path d="M10.0166 1.66669C6.94998 1.66669 4.46664 4.15002 4.46664 7.21669V8.96669C4.46664 9.53335 4.23331 10.3834 3.94164 10.8667L2.88331 12.6334C2.23331 13.725 2.68331 14.9417 3.88331 15.3417C7.86664 16.6667 12.175 16.6667 16.1583 15.3417C17.2833 14.9667 17.7666 13.65 17.1583 12.6334L16.1 10.8667C15.8083 10.3834 15.575 9.52502 15.575 8.96669V7.21669C15.5666 4.16669 13.0666 1.66669 10.0166 1.66669Z" stroke="#151515" stroke-width="1.5" stroke-miterlimit="10" stroke-linecap="round"/>
<path d="M12.775 15.6833C12.775 17.2083 11.525 18.4583 9.99998 18.4583C9.24164 18.4583 8.54164 18.1417 8.04164 17.6417C7.54164 17.1417 7.22498 16.4417 7.22498 15.6833" stroke="#151515" stroke-width="1.5" stroke-miterlimit="10"/>
<path fill-rule="evenodd" clip-rule="evenodd" d="M2.46975 1.46967C2.76264 1.17678 3.23751 1.17678 3.53041 1.46967L18.5304 16.4697C18.8233 16.7626 18.8233 17.2374 18.5304 17.5303C18.2375 17.8232 17.7626 17.8232 17.4697 17.5303L2.46975 2.53033C2.17685 2.23744 2.17685 1.76256 2.46975 1.46967Z" fill="white"/>
<path fill-rule="evenodd" clip-rule="evenodd" d="M1.76264 2.17678C2.05553 1.88388 2.53041 1.88388 2.8233 2.17678L17.8233 17.1768C18.1162 17.4697 18.1162 17.9445 17.8233 18.2374C17.5304 18.5303 17.0555 18.5303 16.7626 18.2374L1.76264 3.23744C1.46975 2.94454 1.46975 2.46967 1.76264 2.17678Z" fill="#151515"/>
</svg>
