<svg width="20" height="21" viewBox="0 0 20 21" fill="none" xmlns="http://www.w3.org/2000/svg">
<path d="M4.25068 10.1042C4.24584 10.0273 4.2678 9.95122 4.3126 9.88884L4.3586 9.83674L5.59762 8.59772L5.59826 8.59708C5.62056 8.5747 5.64593 8.55561 5.67357 8.54038L5.72718 8.51741L8.87979 7.33393L8.98107 7.29592L9.05757 7.21944L11.7001 4.57777L11.9624 4.31548L11.7875 3.98835C11.7514 3.92096 11.7396 3.84323 11.7541 3.76818C11.7685 3.69313 11.8083 3.62532 11.8668 3.57611C11.9252 3.5269 11.9988 3.49927 12.0752 3.49786C12.1464 3.49654 12.2175 3.5188 12.277 3.56207L12.3298 3.60869L16.9012 8.18011C16.9014 8.18024 16.9015 8.18038 16.9016 8.18052C16.9576 8.23696 16.9915 8.31154 16.9974 8.39082C17.0032 8.47028 16.9803 8.54921 16.933 8.61329C16.8856 8.67737 16.8169 8.72237 16.7392 8.74013C16.6615 8.75789 16.5801 8.74724 16.5096 8.71011L16.1836 8.53842L15.9231 8.79889L13.2797 11.4414L13.2031 11.518L13.1651 11.6194L11.9784 14.7836L11.9783 14.7839C11.9667 14.8148 11.9506 14.8439 11.9305 14.87L11.8912 14.9149L10.6533 16.1528C10.5959 16.2102 10.5195 16.2446 10.4385 16.2496C10.3612 16.2544 10.2848 16.2321 10.2223 16.1869L10.169 16.1403L7.85339 13.8255L7.49989 13.4722L7.1464 13.8256L3.98612 16.985C3.98606 16.9851 3.986 16.9851 3.98594 16.9852C3.92597 17.0449 3.84556 17.0795 3.76099 17.0821C3.67634 17.0847 3.59388 17.0549 3.53036 16.9989C3.46684 16.9429 3.42702 16.8648 3.41898 16.7805C3.41135 16.7004 3.43297 16.6204 3.47958 16.5551L3.52529 16.5034L6.67434 13.3535L7.02773 13L6.67435 12.6465L4.34769 10.319L4.34764 10.319C4.29025 10.2616 4.25577 10.1852 4.25068 10.1042Z" stroke="#151515"/>
</svg>
