<svg width="20" height="20" viewBox="0 0 20 20" fill="none" xmlns="http://www.w3.org/2000/svg">
<path d="M18.3333 4.75833V12.7417C18.3333 15.0417 16.4666 16.9083 14.1666 16.9083H5.83331C5.44998 16.9083 5.08331 16.8583 4.72498 16.7583C4.20831 16.6167 4.04164 15.9583 4.42498 15.575L13.2833 6.71666C13.4666 6.53333 13.7416 6.49166 14 6.54166C14.2666 6.59166 14.5583 6.51666 14.7666 6.31666L16.9083 4.16666C17.6916 3.38333 18.3333 3.64166 18.3333 4.75833Z" fill="#151515"/>
<path d="M12.2 6.13335L3.47502 14.8583C3.07502 15.2583 2.40835 15.1583 2.14169 14.6583C1.83335 14.0917 1.66669 13.4333 1.66669 12.7417V4.75835C1.66669 3.64168 2.30835 3.38335 3.09169 4.16668L5.24169 6.32502C5.56669 6.64168 6.10002 6.64168 6.42502 6.32502L9.40835 3.33335C9.73335 3.00835 10.2667 3.00835 10.5917 3.33335L12.2084 4.95002C12.525 5.27502 12.525 5.80835 12.2 6.13335Z" fill="#151515"/>
</svg>
