<svg width="20" height="20" viewBox="0 0 20 20" fill="none" xmlns="http://www.w3.org/2000/svg">
<path d="M14.0167 1.66669H5.98333C4.20833 1.66669 2.76666 3.11669 2.76666 4.88335V16.625C2.76666 18.125 3.84166 18.7584 5.15833 18.0334L9.225 15.775C9.65833 15.5334 10.3583 15.5334 10.7833 15.775L14.85 18.0334C16.1667 18.7667 17.2417 18.1334 17.2417 16.625V4.88335C17.2333 3.11669 15.7917 1.66669 14.0167 1.66669ZM12.0833 9.50002H7.91666C7.575 9.50002 7.29166 9.21669 7.29166 8.87502C7.29166 8.53335 7.575 8.25002 7.91666 8.25002H12.0833C12.425 8.25002 12.7083 8.53335 12.7083 8.87502C12.7083 9.21669 12.425 9.50002 12.0833 9.50002Z" fill="#151515"/>
</svg>
