<svg width="20" height="20" viewBox="0 0 20 20" fill="none" xmlns="http://www.w3.org/2000/svg">
<path d="M13.45 2.46664L5.92498 4.96664C0.866642 6.65831 0.866642 9.41664 5.92498 11.1L8.15831 11.8416L8.89998 14.075C10.5833 19.1333 13.35 19.1333 15.0333 14.075L17.5416 6.55831C18.6583 3.18331 16.825 1.34164 13.45 2.46664ZM13.7166 6.94997L10.55 10.1333C10.425 10.2583 10.2666 10.3166 10.1083 10.3166C9.94998 10.3166 9.79164 10.2583 9.66664 10.1333C9.42498 9.89164 9.42498 9.49164 9.66664 9.24997L12.8333 6.06664C13.075 5.82497 13.475 5.82497 13.7166 6.06664C13.9583 6.30831 13.9583 6.70831 13.7166 6.94997Z" fill="#151515"/>
</svg>
