<svg width="20" height="20" viewBox="0 0 20 20" fill="none" xmlns="http://www.w3.org/2000/svg">
<path d="M16.9666 10.6083C16.6583 10.6083 16.4 10.375 16.3666 10.0667C16.1666 8.23333 15.1833 6.58333 13.6666 5.53333C13.3916 5.34167 13.325 4.96667 13.5166 4.69167C13.7083 4.41667 14.0833 4.35 14.3583 4.54167C16.1666 5.8 17.3333 7.76667 17.575 9.94167C17.6083 10.275 17.3666 10.575 17.0333 10.6083C17.0083 10.6083 16.9916 10.6083 16.9666 10.6083Z" fill="#151515"/>
<path d="M3.11668 10.65C3.10002 10.65 3.07502 10.65 3.05835 10.65C2.72502 10.6167 2.48335 10.3167 2.51668 9.98332C2.74168 7.80832 3.89168 5.84165 5.68335 4.57498C5.95002 4.38332 6.33335 4.44998 6.52502 4.71665C6.71668 4.99165 6.65002 5.36665 6.38335 5.55832C4.88335 6.62498 3.90835 8.27499 3.72502 10.1C3.69168 10.4167 3.42502 10.65 3.11668 10.65Z" fill="#151515"/>
<path d="M13.325 17.5833C12.3 18.075 11.2 18.325 10.05 18.325C8.85002 18.325 7.70836 18.0583 6.64169 17.5167C6.34169 17.375 6.22502 17.0083 6.37502 16.7083C6.51669 16.4083 6.88336 16.2917 7.18336 16.4333C7.70836 16.7 8.26669 16.8833 8.83336 16.9917C9.60002 17.1417 10.3834 17.15 11.15 17.0167C11.7167 16.9167 12.275 16.7417 12.7917 16.4917C13.1 16.35 13.4667 16.4667 13.6 16.775C13.75 17.075 13.6334 17.4417 13.325 17.5833Z" fill="#151515"/>
<path d="M10.0417 1.67499C8.74998 1.67499 7.69165 2.72499 7.69165 4.02499C7.69165 5.32499 8.74165 6.37499 10.0417 6.37499C11.3417 6.37499 12.3917 5.32499 12.3917 4.02499C12.3917 2.72499 11.3417 1.67499 10.0417 1.67499Z" fill="#151515"/>
<path d="M4.20834 11.5583C2.91667 11.5583 1.85834 12.6084 1.85834 13.9083C1.85834 15.2083 2.90834 16.2583 4.20834 16.2583C5.50834 16.2583 6.55834 15.2083 6.55834 13.9083C6.55834 12.6084 5.5 11.5583 4.20834 11.5583Z" fill="#151515"/>
<path d="M15.7917 11.5583C14.5 11.5583 13.4417 12.6084 13.4417 13.9083C13.4417 15.2083 14.4917 16.2583 15.7917 16.2583C17.0917 16.2583 18.1417 15.2083 18.1417 13.9083C18.1417 12.6084 17.0917 11.5583 15.7917 11.5583Z" fill="#151515"/>
</svg>
